# xmcd
#
# Track frame offsets:
#	150
#	14079
#	23622
#	38449
#	54333
#	73446
#	81023
#	97070
#	118487
#	134696
#
# Disc length: 1921 seconds
#
# Revision: 1
# Processed by: cddbd v1.5.2PL0 Copyright (c) Steve Scherf et al.
# Submitted via: audiograbber 1.83.01
#
DISCID=8d077f0a
DTITLE=Dixie Melody Boys - Hymns
DYEAR=2006
DGENRE=Southern Gospel
TTITLE0=In The Garden
TTITLE1=In The Sweet By and By
TTITLE2=Have Thine Own Way
TTITLE3=Softly and Tenderly
TTITLE4=The Last Mile Of The Way
TTITLE5=I Will Sing Of My Redeemer
TTITLE6=I Won't Have To Cross Jordan Alone
TTITLE7=Leave It There
TTITLE8=Haven Of Rest
TTITLE9=Heavenly Sunlight
EXTD=
EXTT0=
EXTT1=
EXTT2=
EXTT3=
EXTT4=
EXTT5=
EXTT6=
EXTT7=
EXTT8=
EXTT9=
PLAYORDER=
